<svg width="58" height="36" viewBox="0 0 58 36" fill="none" xmlns="http://www.w3.org/2000/svg" xmlns:xlink="http://www.w3.org/1999/xlink">
<path d="M51.58,1.176L36.993,1.176L36.993,5.233L51.637,5.233L51.58,1.176ZM48.501,29.085C47.395,29.818 46.088,30.19 44.761,30.149C43.883,30.241 42.995,30.15 42.153,29.883C41.312,29.615 40.534,29.177 39.87,28.596C38.641,27.203 38.002,25.387 38.086,23.532L57.133,23.532C57.27,21.6 57.105,19.659 56.644,17.778C56.197,15.988 55.416,14.299 54.342,12.8C53.26,11.346 51.864,10.156 50.256,9.319C48.468,8.437 46.496,7.993 44.502,8.024C42.627,8.01 40.768,8.372 39.035,9.089C37.449,9.757 36.011,10.735 34.806,11.966C33.605,13.22 32.674,14.709 32.073,16.339C31.427,18.098 31.106,19.96 31.123,21.834C31.094,23.735 31.406,25.626 32.044,27.416C32.586,29.037 33.447,30.534 34.576,31.818C35.744,33.079 37.179,34.062 38.777,34.695C40.558,35.374 42.452,35.706 44.358,35.673C47.032,35.757 49.672,35.057 51.954,33.659C54.258,32.022 55.917,29.63 56.644,26.898L50.285,26.898C49.945,27.802 49.318,28.57 48.501,29.085ZM38.633,17.231C38.857,16.514 39.228,15.851 39.724,15.286C40.219,14.721 40.828,14.266 41.51,13.951C42.413,13.544 43.397,13.348 44.387,13.375C45.102,13.314 45.822,13.409 46.498,13.652C47.173,13.895 47.788,14.282 48.3,14.785C49.278,15.982 49.905,17.426 50.113,18.957L38.172,18.957C38.219,18.372 38.325,17.794 38.489,17.231L38.633,17.231ZM23.413,15.85C24.877,15.24 26.149,14.246 27.095,12.973C27.965,11.62 28.397,10.033 28.333,8.427C28.389,6.962 28.103,5.504 27.498,4.169C26.99,3.012 26.174,2.017 25.139,1.291C24.042,0.538 22.796,0.027 21.485,-0.205C19.934,-0.53 18.351,-0.684 16.766,-0.665L-0.41,-0.665L-0.41,35.53L17.14,35.53C18.742,35.531 20.337,35.328 21.888,34.925C23.357,34.545 24.749,33.912 26.002,33.055C27.215,32.214 28.203,31.088 28.879,29.775C29.627,28.307 29.993,26.675 29.944,25.028C29.998,22.987 29.426,20.979 28.304,19.274C27.097,17.559 25.307,16.342 23.269,15.85L23.413,15.85ZM7.56,5.521L15.011,5.521C15.696,5.52 16.379,5.578 17.054,5.693C17.675,5.786 18.272,6.001 18.809,6.326C19.328,6.62 19.748,7.06 20.018,7.592C20.351,8.23 20.51,8.945 20.478,9.664C20.531,10.283 20.437,10.906 20.202,11.482C19.966,12.057 19.598,12.568 19.126,12.973C18.096,13.681 16.864,14.034 15.616,13.98L7.56,13.98L7.56,5.521ZM21.485,26.927C21.189,27.513 20.742,28.01 20.19,28.365C19.616,28.723 18.983,28.976 18.32,29.114C17.584,29.278 16.83,29.356 16.076,29.344L7.444,29.344L7.444,19.418L16.076,19.418C17.557,19.353 19.02,19.766 20.248,20.597C20.802,21.095 21.232,21.716 21.502,22.411C21.772,23.106 21.875,23.855 21.801,24.596C21.879,25.387 21.771,26.185 21.485,26.927L21.485,26.927Z" fill="#000000"/>
</svg>
