<svg width="5728" height="2966" viewBox="0 0 5728 2966" fill="none" xmlns="http://www.w3.org/2000/svg" xmlns:xlink="http://www.w3.org/1999/xlink">
<g opacity="0.5" filter="url(#filter1_321)">
<path d="M1766,563C1766,873.936 1479.014,1126 1125,1126C770.986,1126 484,873.936 484,563C484,252.064 770.986,0 1125,0C1479.014,0 1766,252.064 1766,563Z" fill="#DEFF99"/>
</g>
<g opacity="0.5" filter="url(#filter1_322)">
<path d="M1896,2075C1896,2385.936 1609.014,2638 1255,2638C900.986,2638 614,2385.936 614,2075C614,1764.064 900.986,1512 1255,1512C1609.014,1512 1896,1764.064 1896,2075Z" fill="#E4ECFF"/>
</g>
<g opacity="0.5" filter="url(#filter1_323)">
<path d="M5728,1931C5728,2502.614 5263.72,2966 4691,2966C4118.28,2966 3654,2502.614 3654,1931C3654,1359.386 4118.28,896 4691,896C5263.72,896 5728,1359.386 5728,1931Z" fill="#FFE3E3"/>
</g>
<g opacity="0.5" filter="url(#filter1_324)">
<path d="M3536,2019C3536,2233.838 3358.258,2408 3139,2408C2919.743,2408 2742,2233.838 2742,2019C2742,1804.161 2919.743,1630 3139,1630C3358.258,1630 3536,1804.161 3536,2019Z" fill="#A7B0FF"/>
</g>
<path d="M609.898,1191.855L613.626,1193.305L609.898,1191.855ZM1691.19,917.663L1688.258,920.383L1688.258,920.383L1691.19,917.663ZM84.329,1551.283C124.717,1613.527 200.426,1671.297 295.27,1638.369C342.42,1622.001 393.736,1583.331 447.342,1512.597C500.956,1441.851 557.024,1338.815 613.626,1193.305L606.17,1190.405C549.73,1335.499 493.982,1437.807 440.966,1507.765C387.938,1577.737 337.806,1615.133 292.646,1630.813C202.874,1661.979 130.519,1607.771 91.04,1546.929L84.329,1551.283ZM613.626,1193.305C754.704,830.637 940.316,673.455 1131.24,650.82C1322.444,628.151 1520.934,740.131 1688.258,920.383L1694.122,914.941C1526.102,733.94 1325.252,619.762 1130.298,642.875C935.066,666.022 747.704,826.563 606.17,1190.405L613.626,1193.305ZM1688.258,920.383C1755.506,992.827 1812.438,1036.865 1860.398,1060.119C1908.412,1083.399 1947.676,1085.951 1979.212,1074.973C2010.688,1064.017 2033.748,1039.831 2049.908,1011.065C2066.068,982.299 2075.502,948.673 2079.648,918.201L2071.72,917.123C2067.674,946.861 2058.484,979.465 2042.934,1007.145C2027.384,1034.823 2005.646,1057.301 1976.582,1067.417C1947.578,1077.513 1910.556,1075.549 1863.888,1052.921C1817.164,1030.265 1761.012,986.999 1694.122,914.941L1688.258,920.383Z" transform="rotate(80.514 1081.684 1143.915)" fill="#E7FABD"/>
<path d="M4206.547,893.275L4203.727,894.298L4206.547,893.275ZM3986.237,821.106C4016.246,815.677 4063.217,812.895 4106.462,822.144C4149.748,831.401 4188.579,852.522 4203.727,894.298L4209.367,892.253C4193.191,847.639 4151.881,825.721 4107.717,816.276C4063.512,806.823 4015.723,809.675 3985.169,815.202L3986.237,821.106ZM4203.727,894.298C4208.453,907.331 4210.387,924.138 4210.935,943.87C4211.483,963.578 4210.647,985.893 4209.977,1009.908C4208.639,1057.814 4207.965,1112.228 4220.601,1164.148C4233.261,1216.162 4259.299,1265.762 4311.379,1303.948C4363.395,1342.088 4441.099,1368.63 4556.701,1375.17L4557.041,1369.18C4442.139,1362.678 4365.695,1336.334 4314.927,1299.108C4264.219,1261.93 4238.831,1213.68 4226.431,1162.73C4214.007,1111.684 4214.637,1058.014 4215.975,1010.076C4216.643,986.17 4217.487,963.626 4216.933,943.704C4216.381,923.807 4214.431,906.216 4209.367,892.253L4203.727,894.298Z" transform="rotate(-306.073 4271.287 1092.638)" fill="#FFFFFF"/>
<defs>
<filter id="filter1_321" x="284" y="-200" width="1041" height="963" filterUnits="userSpaceOnUse" color-interpolation-filters="sRGB">
<feFlood flood-opacity="0" result="BackgroundImageFix"/>
<feBlend mode="normal" in="SourceGraphic" in2="BackgroundImageFix" result="shape"/>
<feGaussianBlur stdDeviation="100" result="0foregroundblur"/>
</filter>
<filter id="filter1_322" x="414" y="1312" width="1041" height="963" filterUnits="userSpaceOnUse" color-interpolation-filters="sRGB">
<feFlood flood-opacity="0" result="BackgroundImageFix"/>
<feBlend mode="normal" in="SourceGraphic" in2="BackgroundImageFix" result="shape"/>
<feGaussianBlur stdDeviation="100" result="0foregroundblur"/>
</filter>
<filter id="filter1_323" x="3454" y="696" width="1437" height="1435" filterUnits="userSpaceOnUse" color-interpolation-filters="sRGB">
<feFlood flood-opacity="0" result="BackgroundImageFix"/>
<feBlend mode="normal" in="SourceGraphic" in2="BackgroundImageFix" result="shape"/>
<feGaussianBlur stdDeviation="100" result="0foregroundblur"/>
</filter>
<filter id="filter1_324" x="2542" y="1430" width="797" height="789" filterUnits="userSpaceOnUse" color-interpolation-filters="sRGB">
<feFlood flood-opacity="0" result="BackgroundImageFix"/>
<feBlend mode="normal" in="SourceGraphic" in2="BackgroundImageFix" result="shape"/>
<feGaussianBlur stdDeviation="100" result="0foregroundblur"/>
</filter>
</defs>
</svg>
