<svg width="48" height="46" viewBox="0 0 48 46" fill="none" xmlns="http://www.w3.org/2000/svg" xmlns:xlink="http://www.w3.org/1999/xlink">
<path d="M0,5.266C0,3.74 0.541,2.48 1.622,1.488C2.703,0.496 4.108,0 5.838,0C7.537,0 8.911,0.488 9.961,1.465C11.042,2.473 11.583,3.785 11.583,5.403C11.583,6.869 11.058,8.09 10.008,9.067C8.927,10.074 7.506,10.578 5.745,10.578L5.699,10.578C4,10.578 2.626,10.074 1.575,9.067C0.525,8.059 0,6.792 0,5.266ZM0.602,45.333L0.602,14.745L10.888,14.745L10.888,45.333L0.602,45.333ZM16.587,45.333L26.873,45.333L26.873,28.253C26.873,27.185 26.996,26.36 27.243,25.78C27.676,24.742 28.332,23.865 29.212,23.147C30.093,22.43 31.197,22.071 32.525,22.071C35.985,22.071 37.714,24.376 37.714,28.986L37.714,45.333L48,45.333L48,27.795C48,23.277 46.919,19.85 44.757,17.515C42.595,15.18 39.737,14.012 36.185,14.012C32.201,14.012 29.097,15.706 26.873,19.095L26.873,19.187L26.826,19.187L26.873,19.095L26.873,14.745L16.587,14.745C16.649,15.722 16.68,18.759 16.68,23.857C16.68,28.955 16.649,36.114 16.587,45.333Z" fill="#000000"/>
</svg>
